Coordinates
nRows=125
nColumns=2
inDegrees=yes
endheader
time	ankle_angle_r	
3.0625	  9.414673	
3.125	  9.403410	
3.1875	  9.456271	
3.25	  9.451730	
3.3125	  9.460449	
3.375	  9.486244	
3.4375	  9.399414	
3.5	  9.470622	
3.5625	  9.409950	
3.625	  9.470259	
3.6875	  9.445190	
3.75	  9.368896	
3.8125	  9.399414	
3.875	  9.399414	
3.9375	  9.338379	
4	  9.353638	
4.0625	  9.345100	
4.125	  9.368896	
4.1875	  9.377070	
4.25	  9.368896	
4.3125	  9.391603	
4.375	  9.384155	
4.4375	  9.346189	
4.5	  9.353638	
4.5625	  9.339469	
4.625	  9.377253	
4.6875	  9.399414	
4.75	  9.377616	
4.8125	  9.417216	
4.875	  9.372167	
4.9375	  9.347643	
5	  9.353638	
5.0625	  9.344010	
5.125	  9.439741	
5.1875	  9.465717	
5.25	  9.445190	
5.3125	  9.552002	
5.375	  9.460449	
5.4375	  9.506226	
5.5	  9.449550	
5.5625	  9.445190	
5.625	  9.517488	
5.6875	  9.552002	
5.75	  9.502592	
5.8125	  9.490967	
5.875	  9.399414	
5.9375	  9.393238	
6	  9.363084	
6.0625	  9.348188	
6.125	  9.409587	
6.1875	  9.381794	
6.25	  9.384155	
6.3125	  9.416671	
6.375	  9.326754	
6.4375	  9.340014	
6.5	  9.353638	
6.5625	  9.352366	
6.625	  9.412493	
6.6875	  9.369804	
6.75	  9.383429	
6.8125	  9.399414	
6.875	  9.338742	
6.9375	  9.353638	
7	  9.353638	
7.0625	  9.323483	
7.125	  9.445190	
7.1875	  9.428297	
7.25	  9.429205	
7.3125	  9.459541	
7.375	  9.383065	
7.4375	  9.399414	
7.5	  9.384155	
7.5625	  9.445190	
7.625	  9.490967	
7.6875	  9.429932	
7.75	  9.403773	
7.8125	  9.442829	
7.875	  9.361267	
7.9375	  9.457725	
8	  9.445190	
8.0625	  9.472620	
8.125	  9.528024	
8.1875	  9.467352	
8.25	  9.460449	
8.3125	  9.460449	
8.375	  9.399414	
8.4375	  9.453547	
8.5	  9.445190	
8.5625	  9.486425	
8.625	  9.501503	
8.6875	  9.440286	
8.75	  9.496053	
8.8125	  9.485699	
8.875	  9.359087	
8.9375	  9.485335	
9	  9.408860	
9.0625	  9.420668	
9.125	  9.475708	
9.1875	  9.429932	
9.25	  9.508406	
9.3125	  9.462266	
9.375	  9.399414	
9.4375	  9.452275	
9.5	  9.384882	
9.5625	  9.414673	
9.625	  9.475708	
9.6875	  9.475708	
9.75	  9.422666	
9.8125	  9.413583	
9.875	  9.330023	
9.9375	  9.353638	
10	  9.353638	
10.0625	  9.362538	
10.125	  9.384155	
10.1875	  9.368896	
10.25	  9.424119	
10.3125	  9.399414	
10.375	  9.334020	
10.4375	  9.353638	
10.5	  9.333293	
10.5625	  9.353638	
10.625	  9.405227	
10.6875	  9.393238	
10.75	  9.403773	
10.8125	  9.464627	
